#!OML:ASF X:\für Bonn\!DataBase\2005_08_10_Bjorn_Final\c3d\bjorn.ASF
:FULLY-SPECIFIED
:DEGREES
76
root 2.04646 15.6942 0.638827 333.247 -260.614 -388.595
lowerback 29.1419 -0.581835 3.09682
upperback 19.5753 2.79483 0.711301
thorax 6.44204 2.82201 -1.44992
lowerneck -3.03879 -8.77737 1.54478
upperneck 6.75805 -11.9937 3.87391
head 2.84079 -5.76975 0.565311
rclavicle -3.49861e-014 -5.88403e-014
rhumerus 20.3173 1.14719 -70.5879
rradius 27.4904
rwrist -2.98521
rhand -17.2447 12.5939
rfingers 7.12502
rthumb 8.99924 -17.1942
lclavicle -3.49861e-014 -5.88403e-014
lhumerus 17.3511 -33.766 72.3413
lradius 51.3024
lwrist -11.7441
lhand -30.917 -12.7276
lfingers 7.12502
lthumb -4.20297 17.2107
rfemur -48.8117 -10.7107 14.1901
rtibia 84.7807
rfoot -30.3481 16.3509
rtoes 0.690123
lfemur -52.0723 9.64434 -25.7245
ltibia 82.2042
lfoot -25.5041 1.98628
ltoes -21.3925
77
root 2.05157 15.5787 0.615587 333.338 -260.58 -388.649
lowerback 29.8275 -0.704867 3.23369
upperback 19.7199 2.73619 0.861711
thorax 5.95288 2.7915 -1.28872
lowerneck -2.68312 -8.83713 1.37791
upperneck 6.35703 -12.0492 4.03391
head 2.66437 -5.81404 0.666896
rclavicle -1.90833e-014 9.54166e-015
rhumerus 20.6965 0.892342 -70.2398
rradius 26.7638
rwrist -2.69643
rhand -17.2546 12.502
rfingers 7.12502
rthumb 8.98964 -17.2864
lclavicle -1.90833e-014 9.54166e-015
lhumerus 18.3735 -33.799 71.5073
lradius 51.9217
lwrist -12.1336
lhand -30.8189 -12.7367
lfingers 7.12502
lthumb -4.10828 17.2034
rfemur -49.7581 -10.7787 14.0224
rtibia 86.1588
rfoot -30.5948 16.6941
rtoes 1.01864
lfemur -53.0227 9.85632 -25.9268
ltibia 83.5127
lfoot -25.9195 1.94144
ltoes -21.8685
78
root 2.05721 15.4635 0.592537 333.378 -260.524 -388.755
lowerback 30.2796 -0.82526 3.32658
upperback 19.76 2.65617 1.08738
thorax 5.81002 2.75297 -1.09468
lowerneck -2.34767 -8.89408 1.12907
upperneck 5.98384 -12.101 4.21222
head 2.50973 -5.85656 0.785014
rclavicle 7.79236e-014 5.08889e-014
rhumerus 21.087 0.566359 -69.9365
rradius 26.0461
rwrist -2.31199
rhand -17.1598 12.3788
rfingers 7.12502
rthumb 9.08114 -17.4057
lclavicle 7.79236e-014 5.08889e-014
lhumerus 19.4062 -33.8097 70.6494
lradius 52.5014
lwrist -12.2544
lhand -30.6826 -12.8711
lfingers 7.12502
lthumb -3.97664 17.0715
rfemur -50.7043 -10.8723 13.8191
rtibia 87.527
rfoot -30.7562 17.123
rtoes 1.54711
lfemur -53.9608 10.0541 -26.1427
ltibia 84.8125
lfoot -26.3117 1.81384
ltoes -22.1677
79
root 2.06315 15.3487 0.570353 333.238 -260.442 -389.035
lowerback 30.7676 -0.935098 3.36809
upperback 19.777 2.57937 1.32489
thorax 5.62763 2.70845 -0.863245
lowerneck -2.09415 -8.96191 0.856446
upperneck 5.72097 -12.1734 4.38886
head 2.41006 -5.90508 0.898697
rclavicle -7.95139e-015 1.59028e-015
rhumerus 21.3698 0.249788 -69.6326
rradius 25.4111
rwrist -1.88753
rhand -17.0348 12.1184
rfingers 7.12502
rthumb 9.20177 -17.6609
lclavicle -7.95139e-015 1.59028e-015
lhumerus 20.3358 -33.8168 69.851
lradius 53.058
lwrist -12.3208
lhand -30.6774 -13.0176
lfingers 7.12502
lthumb -3.97163 16.9251
rfemur -51.6426 -10.9973 13.5649
rtibia 88.8854
rfoot -30.9372 17.5319
rtoes 1.61805
lfemur -54.8891 10.2513 -26.3971
ltibia 86.0956
lfoot -26.6437 1.6781
ltoes -22.6052
80
root 2.0714 15.2339 0.547962 333.248 -260.397 -389.179
lowerback 31.2258 -1.04042 3.44717
upperback 19.7811 2.51397 1.55727
thorax 5.44729 2.67183 -0.65859
lowerneck -1.84689 -9.03203 0.568718
upperneck 5.48613 -12.2536 4.62675
head 2.32786 -5.95515 1.03244
rclavicle 2.22639e-014 -1.82882e-014
rhumerus 21.595 -0.186181 -69.4352
rradius 24.7968
rwrist -1.28499
rhand -16.7865 11.8164
rfingers 7.12502
rthumb 9.44131 -17.9522
lclavicle 2.22639e-014 -1.82882e-014
lhumerus 21.2796 -33.8243 69.0099
lradius 53.5356
lwrist -12.3197
lhand -30.7017 -13.2199
lfingers 7.12502
lthumb -3.99511 16.7224
rfemur -52.5797 -11.1057 13.3529
rtibia 90.2288
rfoot -31.1562 17.8741
rtoes 1.31296
lfemur -55.8312 10.4653 -26.6054
ltibia 87.382
lfoot -26.9229 1.49993
ltoes -22.9432
81
root 2.07944 15.1192 0.52513 333.183 -260.331 -389.373
lowerback 31.6946 -1.17402 3.55008
upperback 19.8041 2.42761 1.75223
thorax 5.28878 2.63256 -0.498892
lowerneck -1.72031 -9.10174 0.335455
upperneck 5.32463 -12.3412 4.84226
head 2.28705 -6.00484 1.14294
rclavicle -3.02153e-014 -9.54166e-015
rhumerus 21.821 -0.756855 -69.3701
rradius 24.1701
rwrist -0.579232
rhand -16.5015 11.5541
rfingers 7.12502
rthumb 9.71637 -18.2018
lclavicle -3.02153e-014 -9.54166e-015
lhumerus 22.227 -33.7898 68.1046
lradius 54.006
lwrist -12.3385
lhand -30.7244 -13.3747
lfingers 7.12502
lthumb -4.01704 16.5671
rfemur -53.4925 -11.2675 13.1037
rtibia 91.5614
rfoot -31.3257 18.2373
rtoes 0.856556
lfemur -56.7296 10.6493 -26.8177
ltibia 88.6527
lfoot -27.142 1.27916
ltoes -23.2617
